<svg width="1513" height="460" viewBox="0 0 1513 460" fill="none" xmlns="http://www.w3.org/2000/svg">
<rect width="1513" height="460" fill="transparent"/>
<path stroke="#00CC66" style="stroke-width:3;fill: #fff;"  d="M319.85 396.05C306.9 403.4 296.75 405.5 287.3 404.8C261.75 403.05 243.2 379.95 202.95 379.95C179.85 379.95 156.75 387.65 126.65 402.35C177.75 362.8 218.7 359.65 246.7 342.85C286.95 321.15 310.75 277.75 310.75 224.55C310.75 153.5 270.15 104.5 196.3 104.5C118.95 104.5 67.5 154.55 67.5 237.85C67.5 318.35 118.6 358.6 182.65 358.6C183 358.6 183.35 358.6 183.7 358.6C162.7 367.35 139.25 379.95 110.55 405.5L116.85 413.9C121.4 413.2 125.6 412.85 129.8 412.85C166.55 413.55 187.55 440.5 229.9 440.5C261.4 440.5 292.2 425.8 322.65 399.9L319.85 396.05ZM129.45 197.25C129.45 154.9 139.6 116.75 172.5 116.75C222.55 116.75 248.8 204.25 248.8 265.15C248.8 308.9 237.6 345.65 205.05 345.65C154.65 345.65 129.45 258.85 129.45 197.25ZM519.627 215C503.427 216.8 487.527 216.8 471.327 215.3L471.927 220.7C487.227 223.4 496.827 229.1 487.527 254.6L467.127 310.1L432.927 223.1L448.227 219.2V215C424.527 216.5 400.827 216.5 377.127 215L377.427 221C384.627 222.5 389.427 226.4 396.927 244.4L400.227 252.2L379.227 309.8L345.327 223.1L360.027 219.2V215C336.627 216.2 312.927 216.2 289.527 215L289.827 221C296.727 222.5 301.527 226.4 309.027 244.4L354.327 354.2H369.627L403.827 261.5L442.227 354.2H457.527L506.127 222.8L518.727 219.8L519.627 215ZM522.73 185.3C535.03 185.3 545.23 175.1 545.23 162.8C545.23 150.2 535.03 140.3 522.73 140.3C510.43 140.3 500.23 150.2 500.23 162.8C500.23 175.1 510.43 185.3 522.73 185.3ZM563.83 347C556.33 347 550.63 343.7 547.33 338V214.1L545.83 212.6C532.93 215 510.13 216.8 488.53 217.1V221.9C494.83 221.9 500.53 223.7 504.43 227V345.2L487.93 348.8V353C511.03 351.5 541.33 351.2 564.13 353L563.83 347ZM598.061 132.5L596.561 131C583.661 133.4 560.861 135.2 539.261 135.5V140.3C545.561 140.6 551.261 142.4 555.161 145.7V345.2L538.661 348.8V353C561.761 351.5 592.061 351.2 614.861 353L614.561 347C607.061 347 601.361 343.7 598.061 338V132.5ZM703.361 332.6C696.761 336.5 689.261 334.4 679.361 320.6L631.961 254.6L666.461 224L687.461 219.2V215.3C665.261 216.8 643.061 216.8 620.861 215.3L621.461 219.8C637.661 223.7 642.461 236.9 626.261 252.8L601.961 276.8L637.361 330.5C650.261 350 659.861 356.3 672.161 356.3C686.561 356.3 696.461 347.9 704.861 334.4L703.361 332.6ZM745.851 131C713.151 131 691.551 148.7 691.551 189.8V210.2L675.051 215V220.7H691.551V345.2L675.051 348.8V353C702.051 351.5 729.051 351.5 756.051 353L755.751 347C744.651 346.4 737.751 343.1 733.851 337.1L733.551 220.7H765.351V215L733.851 211.4C732.051 205.7 726.351 188.3 726.351 167.6C726.351 152.9 729.351 134.6 741.951 134.6C752.151 134.6 757.551 144.2 757.551 152.9C757.551 157.4 756.051 162.8 753.351 168.5C768.051 184.1 787.251 173.3 787.251 156.8C787.251 142.7 772.551 131.3 745.851 131.3V131ZM885.023 333.8C877.523 340.1 866.123 341 867.023 314.3L868.223 270.5C869.723 228.8 859.223 212 813.623 212C780.623 212 753.023 222.2 753.023 243.5C753.023 260.3 770.723 274.7 791.423 257.6C779.723 229.1 791.423 215.6 804.023 215.6C822.323 215.6 825.623 243.2 825.623 275.9C771.323 276.8 743.423 290.6 743.423 317.9C743.423 338.9 759.323 356.3 782.123 356.3C795.323 356.3 807.623 350.6 822.323 335.6L820.823 332.3C820.823 332.3 814.523 338.6 806.123 338.6C794.723 338.9 783.023 328.1 783.023 311C783.023 292.7 797.423 281.3 825.323 280.1V280.4L824.723 325.7C824.423 346.1 839.123 356.6 854.723 356.6C866.723 356.6 876.923 351.2 887.423 336.5L885.023 333.8ZM920.064 356.3C954.264 356.3 983.664 346.4 983.664 317.9C983.664 271.7 903.564 262.4 903.564 232.4C903.564 224.3 909.564 215.6 923.364 215.6C937.164 215.6 946.164 224.3 946.164 236C946.164 239.6 945.264 244.4 942.864 250.7C957.864 261.5 974.964 253.4 974.964 238.1C974.964 219.8 950.064 211.7 923.964 211.7C883.164 212 866.664 227.9 866.664 247.4C866.664 289.4 945.564 299 945.564 331.4C945.564 342.2 937.164 351.8 922.164 351.8C902.364 351.8 895.464 334.7 899.664 308.6C886.164 300.2 864.864 305.6 864.864 325.4C864.864 348.2 891.564 356.3 920.064 356.3ZM1015.94 132.5L1014.44 131C1001.54 133.4 978.74 135.2 957.14 135.5V140.3C963.44 140.6 969.14 142.4 973.04 145.7V345.2L956.54 348.8V353C979.64 351.5 1009.94 351.2 1032.74 353L1032.44 347C1024.94 347 1019.24 343.7 1015.94 338V132.5ZM1121.84 347C1114.04 347 1108.34 343.7 1105.04 338V263.3C1105.04 232.4 1097.84 212 1069.64 212C1037.54 212 1016.24 239 1016.24 239L1018.34 241.7C1018.34 241.7 1028.54 233 1042.34 233C1055.84 233 1062.44 241.4 1062.44 274.1V345.2L1045.94 348.8V353C1069.04 351.5 1099.34 351.2 1122.14 353L1121.84 347ZM1134.27 185.3C1146.57 185.3 1156.77 175.1 1156.77 162.8C1156.77 150.2 1146.57 140.3 1134.27 140.3C1121.97 140.3 1111.77 150.2 1111.77 162.8C1111.77 175.1 1121.97 185.3 1134.27 185.3ZM1175.37 347C1167.87 347 1162.17 343.7 1158.87 338V214.1L1157.37 212.6C1144.47 215 1121.67 216.8 1100.07 217.1V221.9C1106.37 221.9 1112.07 223.7 1115.97 227V345.2L1099.47 348.8V353C1122.57 351.5 1152.87 351.2 1175.67 353L1175.37 347ZM1221.6 356.3C1272 356.3 1304.1 322.4 1304.1 277.7C1304.1 236.9 1277.7 211.7 1234.5 211.7C1184.1 211.7 1152 245.6 1152 290.3C1152 331.1 1178.4 356.3 1221.6 356.3ZM1236.6 352.1C1212.9 352.1 1195.2 297.2 1196.4 258.8C1197.3 236.3 1204.8 216.2 1219.2 216.2C1242.9 216.2 1260.6 271.1 1259.4 309.5C1258.5 332 1251 352.1 1236.6 352.1ZM1452.05 347C1444.25 347 1438.55 343.7 1435.25 338V263.3C1435.25 232.4 1425.35 212 1398.65 212C1367.75 212 1346.45 239.3 1346.45 239.3L1348.55 242C1348.55 242 1358.75 233 1372.55 233C1386.05 233 1392.65 241.4 1392.65 274.1V345.2L1376.15 348.8V353C1399.25 351.5 1429.55 351.2 1452.35 353L1452.05 347ZM1340.75 213.8L1339.25 212.3C1326.35 214.7 1303.55 216.5 1281.95 216.8V221.6C1288.25 221.9 1293.95 223.7 1298.15 227V345.2L1281.65 348.8V353C1304.75 351.5 1335.05 351.2 1357.85 353L1357.55 347C1349.75 347 1344.05 343.7 1340.75 338V213.8Z" fill="black"/>
</svg>
